<svg width="60" height="60" viewBox="0 0 60 60" fill="none" xmlns="http://www.w3.org/2000/svg">
    <mask id="mask0_2239_14378" style="mask-type:alpha" maskUnits="userSpaceOnUse" x="0" y="0" width="60" height="60">
        <path d="M30 60C13.4571 60 0 46.5429 0 30C0 13.4571 13.4571 0 30 0C46.5429 0 60 13.4571 60 30C60 46.5429 46.5429 60 30 60Z" fill="white"/>
    </mask>
    <g mask="url(#mask0_2239_14378)">
        <path d="M30 60C13.4571 60 0 46.5429 0 30C0 13.4571 13.4571 0 30 0C46.5429 0 60 13.4571 60 30C60 46.5429 46.5429 60 30 60Z" fill="url(#paint0_linear_2239_14378)"/>
        <path opacity="0.5" fill-rule="evenodd" clip-rule="evenodd" d="M35.7983 34.2857H19.9159C13.6765 34.2857 8.57141 39.5221 8.57141 45.974V53.2442C10.0008 54.392 11.521 55.3948 13.1092 56.2597C17.5086 58.6465 22.5479 60 27.8571 60C33.1664 60 38.2033 58.6465 42.605 56.2597C44.191 55.3948 45.7134 54.392 47.1428 53.2442V45.974C47.1428 39.5221 42.0605 34.2857 35.7983 34.2857Z" fill="url(#paint1_linear_2239_14378)"/>
        <path opacity="0.5" fill-rule="evenodd" clip-rule="evenodd" d="M27.852 9.99893C21.5663 9.99893 16.4235 15.1189 16.4235 21.4275C16.4235 27.7361 21.5663 32.8561 27.852 32.8561C34.1606 32.8561 39.2806 27.7361 39.2806 21.4275C39.2806 15.1189 34.1606 9.99893 27.852 9.99893Z" fill="url(#paint2_linear_2239_14378)"/>
        <path fill-rule="evenodd" clip-rule="evenodd" d="M29.2857 11.4286C23.3928 11.4286 18.5714 16.2286 18.5714 22.1429C18.5714 28.0571 23.3928 32.8571 29.2857 32.8571C35.2 32.8571 40 28.0571 40 22.1429C40 16.2286 35.2 11.4286 29.2857 11.4286Z" fill="url(#paint3_linear_2239_14378)"/>
        <path fill-rule="evenodd" clip-rule="evenodd" d="M37.4957 36.4264H22.4957C16.6028 36.4264 11.7814 41.2264 11.7814 47.1407V53.805C13.1314 54.8571 14.5671 55.7764 16.0671 56.5693C20.2221 58.7571 24.9814 59.9978 29.9957 59.9978C35.0099 59.9978 39.7671 58.7571 43.9242 56.5693C45.4221 55.7764 46.8599 54.8571 48.2099 53.805V47.1407C48.2099 41.2264 43.4099 36.4264 37.4957 36.4264Z" fill="url(#paint4_linear_2239_14378)"/>
    </g>
    <defs>
    <linearGradient id="paint0_linear_2239_14378" x1="-5.71424" y1="-43.3884" x2="40.2158" y2="61.4985" gradientUnits="userSpaceOnUse">
        <stop stop-color="#BEC6CC"/>
        <stop offset="1" stop-color="white"/>
    </linearGradient>
    <linearGradient id="paint1_linear_2239_14378" x1="77.6129" y1="39.9601" x2="14.8427" y2="60.6368" gradientUnits="userSpaceOnUse">
        <stop stop-color="#8E969C"/>
        <stop offset="1" stop-color="white"/>
    </linearGradient>
    <linearGradient id="paint2_linear_2239_14378" x1="53.7444" y1="27.7333" x2="21.408" y2="19.0736" gradientUnits="userSpaceOnUse">
        <stop stop-color="#969EA4"/>
        <stop offset="1" stop-color="white"/>
    </linearGradient>
    <linearGradient id="paint3_linear_2239_14378" x1="37.0439" y1="24.3065" x2="-0.25553" y2="11.4286" gradientUnits="userSpaceOnUse">
        <stop stop-color="#959EA6"/>
        <stop offset="1" stop-color="white"/>
    </linearGradient>
    <linearGradient id="paint4_linear_2239_14378" x1="15.4346" y1="52.4631" x2="42.2078" y2="31.2004" gradientUnits="userSpaceOnUse">
        <stop stop-color="#959EA6"/>
        <stop offset="1" stop-color="white"/>
    </linearGradient>
    </defs>
</svg>
