<svg width="300" height="169" viewBox="0 0 300 169" fill="none" xmlns="http://www.w3.org/2000/svg">
<path fill-rule="evenodd" clip-rule="evenodd" d="M159.318 60.0105L164.1 47.1485C165.083 44.5046 168.068 42.8109 171.342 43.0398L174.662 43.272L165.542 67.8077L165.537 67.8073C161.023 67.4917 157.963 63.655 159.318 60.0105Z" fill="url(#paint0_linear_6181_25040)"/>
<path fill-rule="evenodd" clip-rule="evenodd" d="M122.901 135C120.27 135 118.43 132.414 119.307 129.949L125.133 113.573H133.501L128.902 126.497L156.503 126.498C158.608 126.498 160.315 128.232 160.315 130.37V132.676C160.315 133.96 159.291 135 158.028 135H122.901Z" fill="url(#paint1_linear_6181_25040)"/>
<path fill-rule="evenodd" clip-rule="evenodd" d="M117.662 117.511C113.025 117.511 109.266 113.757 109.266 109.127C109.266 99.3921 117.167 91.5022 126.913 91.5022L157.009 91.5012L169.636 40.8956C170.5 37.4303 173.606 35 177.17 35H183.887C187.851 35 190.76 38.7332 189.798 42.5871L172.837 110.573C171.82 114.65 168.164 117.511 163.969 117.511H117.662Z" fill="url(#paint2_linear_6181_25040)"/>
<path fill-rule="evenodd" clip-rule="evenodd" d="M157.009 91.5024L153.473 105.404H109.714C111.367 97.4666 118.5 91.5024 127.048 91.5024H157.009Z" fill="url(#paint3_linear_6181_25040)"/>
<path opacity="0.327939" fill-rule="evenodd" clip-rule="evenodd" d="M178.962 41.8549C179.081 41.3742 179.568 41.0815 180.049 41.201C180.508 41.3152 180.795 41.7637 180.716 42.2223L180.703 42.2879L164.37 107.956C163.735 110.509 161.472 112.314 158.854 112.377L158.713 112.379H115.958C115.463 112.379 115.061 111.977 115.061 111.482C115.061 111.009 115.427 110.622 115.891 110.587L115.958 110.585H158.713C160.526 110.585 162.11 109.378 162.598 107.642L162.63 107.523L178.962 41.8549Z" fill="url(#paint4_linear_6181_25040)"/>
<path fill-rule="evenodd" clip-rule="evenodd" d="M128.049 69H122.451C116.817 69 112.25 64.4203 112.25 58.7714V45.2286C112.25 39.579 116.817 35 122.451 35H128.049C133.683 35 138.25 39.579 138.25 45.2286V58.7714C138.25 64.4203 133.683 69 128.049 69Z" fill="url(#paint5_linear_6181_25040)"/>
<path fill-rule="evenodd" clip-rule="evenodd" d="M136.25 51.9036V58.0326C136.25 62.985 132.385 67 127.618 67H122.882C118.114 67 114.25 62.985 114.25 58.0326V51.9036C114.25 51.6807 114.431 51.5 114.654 51.5H135.846C136.069 51.5 136.25 51.6807 136.25 51.9036Z" fill="url(#paint6_linear_6181_25040)"/>
<path d="M128.905 48.5H121.405C121.129 48.5 120.905 48.7239 120.905 49V49.5C120.905 49.7761 121.129 50 121.405 50H128.905C129.181 50 129.405 49.7761 129.405 49.5V49C129.405 48.7239 129.181 48.5 128.905 48.5Z" fill="url(#paint7_linear_6181_25040)"/>
<g opacity="0.3">
<path opacity="0.3" fill-rule="evenodd" clip-rule="evenodd" d="M254.834 60.0105L259.616 47.1485C260.599 44.5046 263.584 42.8109 266.858 43.0398L270.178 43.272L261.057 67.8077L261.053 67.8073C256.539 67.4917 253.479 63.655 254.834 60.0105Z" fill="url(#paint8_linear_6181_25040)"/>
<path opacity="0.3" fill-rule="evenodd" clip-rule="evenodd" d="M218.417 135C215.786 135 213.946 132.414 214.823 129.949L220.649 113.573H229.017L224.418 126.497L252.019 126.498C254.124 126.498 255.831 128.232 255.831 130.37V132.676C255.831 133.96 254.807 135 253.544 135H218.417Z" fill="url(#paint9_linear_6181_25040)"/>
<path opacity="0.3" fill-rule="evenodd" clip-rule="evenodd" d="M213.178 117.511C208.541 117.511 204.781 113.757 204.781 109.127C204.781 99.3921 212.683 91.5022 222.429 91.5022L252.525 91.5012L265.151 40.8956C266.016 37.4303 269.122 35 272.686 35H279.403C283.367 35 286.276 38.7332 285.314 42.5871L268.353 110.573C267.336 114.65 263.68 117.511 259.485 117.511H213.178Z" fill="url(#paint10_linear_6181_25040)"/>
<path opacity="0.3" fill-rule="evenodd" clip-rule="evenodd" d="M252.525 91.5024L248.989 105.404H205.23C206.883 97.4666 214.016 91.5024 222.564 91.5024H252.525Z" fill="url(#paint11_linear_6181_25040)"/>
<path opacity="0.327939" fill-rule="evenodd" clip-rule="evenodd" d="M274.478 41.8549C274.597 41.3742 275.084 41.0815 275.565 41.201C276.023 41.3152 276.311 41.7637 276.232 42.2223L276.219 42.2879L259.886 107.956C259.251 110.509 256.988 112.314 254.37 112.377L254.229 112.379H211.474C210.979 112.379 210.577 111.977 210.577 111.482C210.577 111.009 210.943 110.622 211.407 110.587L211.474 110.585H254.229C256.042 110.585 257.626 109.378 258.114 107.642L258.146 107.523L274.478 41.8549Z" fill="url(#paint12_linear_6181_25040)"/>
</g>
<g opacity="0.4">
<path opacity="0.4" fill-rule="evenodd" clip-rule="evenodd" d="M63.8028 60.0105L68.5842 47.1485C69.5675 44.5046 72.5527 42.8109 75.8263 43.0398L79.1464 43.272L70.026 67.8077L70.0215 67.8073C65.5074 67.4917 62.4475 63.655 63.8028 60.0105Z" fill="url(#paint13_linear_6181_25040)"/>
<path opacity="0.4" fill-rule="evenodd" clip-rule="evenodd" d="M27.3853 135C24.7545 135 22.9142 132.414 23.7917 129.949L29.6174 113.573H37.9855L33.3866 126.497L60.9878 126.498C63.0926 126.498 64.7995 128.232 64.7995 130.37V132.676C64.7995 133.96 63.7757 135 62.5125 135H27.3853Z" fill="url(#paint14_linear_6181_25040)"/>
<path opacity="0.4" fill-rule="evenodd" clip-rule="evenodd" d="M22.1461 117.511C17.5092 117.511 13.75 113.757 13.75 109.127C13.75 99.3921 21.6515 91.5022 31.3972 91.5022L61.4938 91.5012L74.1199 40.8956C74.9845 37.4303 78.0907 35 81.6548 35H88.3715C92.3354 35 95.2444 38.7332 94.2824 42.5871L77.3214 110.573C76.3045 114.65 72.6483 117.511 68.4536 117.511H22.1461Z" fill="url(#paint15_linear_6181_25040)"/>
<path opacity="0.4" fill-rule="evenodd" clip-rule="evenodd" d="M61.4931 91.5024L57.9577 105.404H14.1985C15.8516 97.4666 22.9843 91.5024 31.5328 91.5024H61.4931Z" fill="url(#paint16_linear_6181_25040)"/>
<path opacity="0.327939" fill-rule="evenodd" clip-rule="evenodd" d="M83.4463 41.8549C83.5658 41.3742 84.0524 41.0815 84.5331 41.201C84.9919 41.3152 85.2795 41.7637 85.2008 42.2223L85.187 42.2879L68.8547 107.956C68.2198 110.509 65.9565 112.314 63.3381 112.377L63.1975 112.379H20.4425C19.9472 112.379 19.5457 111.977 19.5457 111.482C19.5457 111.009 19.9115 110.622 20.3756 110.587L20.4425 110.585H63.1975C65.0101 110.585 66.5947 109.378 67.0825 107.642L67.114 107.523L83.4463 41.8549Z" fill="url(#paint17_linear_6181_25040)"/>
</g>
<defs>
<linearGradient id="paint0_linear_6181_25040" x1="164.097" y1="33.7263" x2="177.97" y2="67.4163" gradientUnits="userSpaceOnUse">
<stop stop-color="#959EA6"/>
<stop offset="1" stop-color="white"/>
</linearGradient>
<linearGradient id="paint1_linear_6181_25040" x1="132.385" y1="116.089" x2="132.385" y2="150.559" gradientUnits="userSpaceOnUse">
<stop stop-color="#959EA6"/>
<stop offset="1" stop-color="white"/>
</linearGradient>
<linearGradient id="paint2_linear_6181_25040" x1="100.763" y1="121.601" x2="208.456" y2="28.7903" gradientUnits="userSpaceOnUse">
<stop stop-color="#BEC6CC"/>
<stop offset="1" stop-color="white"/>
</linearGradient>
<linearGradient id="paint3_linear_6181_25040" x1="104.569" y1="97.3943" x2="158.451" y2="118.789" gradientUnits="userSpaceOnUse">
<stop stop-color="#BEC6CC"/>
<stop offset="1" stop-color="white"/>
</linearGradient>
<linearGradient id="paint4_linear_6181_25040" x1="77.5412" y1="140.609" x2="150.266" y2="71.6556" gradientUnits="userSpaceOnUse">
<stop stop-color="#959EA6"/>
<stop offset="1" stop-color="white"/>
</linearGradient>
<linearGradient id="paint5_linear_6181_25040" x1="119.81" y1="46.1426" x2="147.639" y2="79.5821" gradientUnits="userSpaceOnUse">
<stop stop-color="#FDB713"/>
<stop offset="1" stop-color="white"/>
</linearGradient>
<linearGradient id="paint6_linear_6181_25040" x1="154.648" y1="40.5544" x2="133.914" y2="69.1028" gradientUnits="userSpaceOnUse">
<stop stop-color="#FDB713"/>
<stop offset="1" stop-color="white"/>
</linearGradient>
<linearGradient id="paint7_linear_6181_25040" x1="124.562" y1="53.7119" x2="124.562" y2="48.5" gradientUnits="userSpaceOnUse">
<stop stop-color="#FDB713"/>
<stop offset="1" stop-color="white"/>
</linearGradient>
<linearGradient id="paint8_linear_6181_25040" x1="259.613" y1="33.7263" x2="273.486" y2="67.4163" gradientUnits="userSpaceOnUse">
<stop stop-color="#959EA6"/>
<stop offset="1" stop-color="white"/>
</linearGradient>
<linearGradient id="paint9_linear_6181_25040" x1="227.901" y1="116.089" x2="227.901" y2="150.559" gradientUnits="userSpaceOnUse">
<stop stop-color="#959EA6"/>
<stop offset="1" stop-color="white"/>
</linearGradient>
<linearGradient id="paint10_linear_6181_25040" x1="196.279" y1="121.601" x2="303.972" y2="28.7903" gradientUnits="userSpaceOnUse">
<stop stop-color="#BEC6CC"/>
<stop offset="1" stop-color="white"/>
</linearGradient>
<linearGradient id="paint11_linear_6181_25040" x1="200.084" y1="97.3943" x2="253.967" y2="118.789" gradientUnits="userSpaceOnUse">
<stop stop-color="#BEC6CC"/>
<stop offset="1" stop-color="white"/>
</linearGradient>
<linearGradient id="paint12_linear_6181_25040" x1="173.057" y1="140.609" x2="245.782" y2="71.6555" gradientUnits="userSpaceOnUse">
<stop stop-color="#959EA6"/>
<stop offset="1" stop-color="white"/>
</linearGradient>
<linearGradient id="paint13_linear_6181_25040" x1="68.5818" y1="33.7263" x2="82.4548" y2="67.4163" gradientUnits="userSpaceOnUse">
<stop stop-color="#959EA6"/>
<stop offset="1" stop-color="white"/>
</linearGradient>
<linearGradient id="paint14_linear_6181_25040" x1="36.8698" y1="116.089" x2="36.8698" y2="150.559" gradientUnits="userSpaceOnUse">
<stop stop-color="#959EA6"/>
<stop offset="1" stop-color="white"/>
</linearGradient>
<linearGradient id="paint15_linear_6181_25040" x1="5.24765" y1="121.601" x2="112.94" y2="28.7903" gradientUnits="userSpaceOnUse">
<stop stop-color="#BEC6CC"/>
<stop offset="1" stop-color="white"/>
</linearGradient>
<linearGradient id="paint16_linear_6181_25040" x1="9.05299" y1="97.3943" x2="62.9352" y2="118.789" gradientUnits="userSpaceOnUse">
<stop stop-color="#BEC6CC"/>
<stop offset="1" stop-color="white"/>
</linearGradient>
<linearGradient id="paint17_linear_6181_25040" x1="-17.9745" y1="140.609" x2="54.7505" y2="71.6556" gradientUnits="userSpaceOnUse">
<stop stop-color="#959EA6"/>
<stop offset="1" stop-color="white"/>
</linearGradient>
</defs>
</svg>
